<?xml version="1.0" encoding="UTF-8"?>
<svg xmlns="http://www.w3.org/2000/svg" viewBox="0 0 512 512" width="512" height="512"><g id="Out_line" data-name="Out line"><path d="M192,412a107.97478,107.97478,0,0,0,57.09192-199.6369A61.908,61.908,0,0,1,272,208a16,16,0,0,0,0-32,93.24137,93.24137,0,0,0-60.2124,21.8269A108.00059,108.00059,0,1,0,192,412Zm82.05371-227.7229A7.99491,7.99491,0,0,1,272,200c-.63049,0-1.25793.01617-1.88525.03271ZM252,186.33832a86.21094,86.21094,0,0,1,13.82227-2.119l-4.135,16.53955A69.67852,69.67852,0,0,0,252,202.89856Zm-8,2.31689v17.15924a68.948,68.948,0,0,0-9.48987,5.06549l-5.19372-15.58123A84.86982,84.86982,0,0,1,244,188.65521ZM222.36719,199.751l5.35254,16.05743a69.26982,69.26982,0,0,0-9.65577,9.73309l-5.78649-17.35894A84.90444,84.90444,0,0,1,222.36719,199.751Zm-10.021,33.93731c-.9397,1.56409-1.83008,3.16877-2.65674,4.822l-1.37524,2.75019-10.09168-15.13739a86.23156,86.23156,0,0,1,7.864-11.21363Zm-9.50854,13.77906a8.02894,8.02894,0,0,1-2.84693.53509,8.0022,8.0022,0,0,1-7.146-11.58008l1.12695-2.25378ZM192,204a100.22865,100.22865,0,0,1,12.38611.78058,94.34843,94.34843,0,0,0-16.163,22.99628l-2.53369,5.06738a15.9999,15.9999,0,1,0,28.6211,14.31152l2.53418-5.06787c.89209-1.78412,1.8667-3.50592,2.90661-5.17224a19.838,19.838,0,0,1-.88806,9.75043l-.00049.00091a20.00951,20.00951,0,0,1-37.72558,0,4.00013,4.00013,0,0,0-7.543,2.666,28.00989,28.00989,0,0,0,52.81152,0l.00061-.00238a27.98927,27.98927,0,0,0-.709-20.427,61.1212,61.1212,0,0,1,14.8197-12.31965A99.96293,99.96293,0,1,1,192,204Z"/><path d="M136.00244,240.1665a3.9854,3.9854,0,0,0,2.54688-.91748A84.19559,84.19559,0,0,1,157.02,227.63428a4.00019,4.00019,0,0,0-3.34277-7.26856A92.23461,92.23461,0,0,0,133.45068,233.084a4,4,0,0,0,2.55176,7.08252Z"/><path d="M108,304a83.37115,83.37115,0,0,1,15.27-48.2417,3.99985,3.99985,0,0,0-6.541-4.60547,91.9638,91.9638,0,0,0-13.251,77.93946,4.00016,4.00016,0,0,0,7.69629-2.18458A83.8602,83.8602,0,0,1,108,304Z"/><path d="M176.03271,235.77148a3.997,3.997,0,0,0,5.1045-2.43847,19.88937,19.88937,0,0,1,3.95508-6.666,4.0002,4.0002,0,0,0-5.96192-5.335,27.86347,27.86347,0,0,0-5.53613,9.335A4.00057,4.00057,0,0,0,176.03271,235.77148Z"/><path d="M238.73486,171.79492a3.9975,3.9975,0,0,0,5.06006-2.52978l5.95313-17.86035,11.42334,11.42382a4.00026,4.00026,0,1,0,5.65722-5.65722l-16-16a4.00047,4.00047,0,0,0-6.62353,1.56347l-8,24A4.00066,4.00066,0,0,0,238.73486,171.79492Z"/><path d="M281.78906,163.57764,292,158.47217V176a4.00013,4.00013,0,0,0,2.73486,3.79492l17.86035,5.95313-11.42382,11.42334a4.00026,4.00026,0,0,0,5.65722,5.65722l16-16a4.00047,4.00047,0,0,0-1.56347-6.62353L300,173.11719V152a3.99976,3.99976,0,0,0-5.78906-3.57764l-16,8a4,4,0,0,0,3.57812,7.15528Z"/><path d="M299.57764,206.21094a4,4,0,1,0-7.15528,3.57812l4.34229,8.68457-11.98-2.396a4.00008,4.00008,0,0,0-1.56934,7.84472l20,4a4.00028,4.00028,0,0,0,4.36231-5.71142Z"/><path d="M484.09973,466.60864,407.86133,62.51685A8.00006,8.00006,0,0,0,400,56H367.85449a48.72031,48.72031,0,0,0-9.74243-26.3667C351.27393,20.8418,342.00049,16,332,16s-19.27393,4.8418-26.11218,13.6333A48.72114,48.72114,0,0,0,296.14551,56h-24.291a48.72031,48.72031,0,0,0-9.74243-26.3667C255.27393,20.8418,246.00049,16,236,16s-19.27393,4.8418-26.11218,13.6333A48.72114,48.72114,0,0,0,200.14551,56h-24.291a48.72031,48.72031,0,0,0-9.74243-26.3667C159.27393,20.8418,150.00049,16,140,16s-19.27393,4.8418-26.11218,13.6333C107.51147,37.83093,104,48.6153,104,60a54.28433,54.28433,0,0,0,.4834,7.22937,23.98325,23.98325,0,0,0-3.10022,7.523L20.57422,434.7478A24.06622,24.06622,0,0,0,30.32,459.73633,32.00934,32.00934,0,0,0,62.04,496h397.7a24.78219,24.78219,0,0,0,24.35974-29.39136ZM459.74414,484h-.76221a12.79154,12.79154,0,0,1-11.71923-7.66455l-36.21485-82.77637A20.527,20.527,0,0,0,392,381.10107c-.0415,0-.082.00415-.12354.0044H332.30371L399.64392,83.687l72.67,385.1499A12.79178,12.79178,0,0,1,459.74414,484ZM46.416,476.4834a19.89139,19.89139,0,0,1-3.9502-16.54761c.50513.038,1.01257.06421,1.52441.06421H283.19385A19.88806,19.88806,0,0,0,302.708,444.38037l80.8164-360A19.8915,19.8915,0,0,0,380.00049,68h14.99243L304.73975,466.61719A20.68335,20.68335,0,0,0,308.63416,484H62.0415A19.89946,19.89946,0,0,1,46.416,476.4834ZM115.99658,60c0-17.645,10.7666-32,24-32s24,14.355,24,32h-8c0-13.458-7.02783-24-16-24s-16,10.542-16,24,7.02783,24,16,24c3.03943,0,5.74268,2.7041,7.09131,6.55878A18.31416,18.31416,0,0,1,139.99658,92c-11.07422,0-20.41626-10.05536-23.17138-23.67645l-.00464-.02094A41.999,41.999,0,0,1,115.99658,60Zm27.68347-4H136.32c.76233-4.59943,2.69506-7.37958,3.68-7.94543C140.985,48.62042,142.91772,51.40057,143.68005,56Zm4.07483,42.8136C146.884,104.012,143.6886,108,139.99658,108c-3.69421,0-6.89136-3.99255-7.75989-9.1955a25.87093,25.87093,0,0,0,15.51819.0091Zm-23.70752-4.15833c-.02356.44782-.05078.89563-.05078,1.34473,0,11.02783,7.17774,20,16,20s16-8.97217,16-20-7.17773-20-16-20c-2.55481,0-5.30981-3.13843-6.82788-8h71.47461c1.85767,11.3819,7.59546,21.01782,15.40454,26.65527-.02356.44782-.05078.89563-.05078,1.34473,0,11.02783,7.17773,20,16,20s16-8.97217,16-20-7.17773-20-16-20c-2.55481,0-5.30981-3.13843-6.82788-8H300.6438c1.85766,11.3819,7.59546,21.01782,15.40454,26.65527-.02356.44782-.05078.89563-.05078,1.34473,0,11.02783,7.17773,20,16,20s16-8.97217,16-20-7.17774-20-16-20c-2.55481,0-5.30982-3.13843-6.82788-8h38.84009a11.99987,11.99987,0,0,1,11.709,14.62842l-80.81641,360A11.93315,11.93315,0,0,1,283.19385,452H43.99023a11.99987,11.99987,0,0,1-11.709-14.62842l80.158-357.06714A37.24242,37.24242,0,0,0,124.04736,94.65527ZM251.99707,60c0-13.458-7.02783-24-16-24s-16,10.542-16,24,7.02783,24,16,24c3.03943,0,5.74268,2.7041,7.09131,6.55878A18.31416,18.31416,0,0,1,235.99707,92c-13.2334,0-24-14.355-24-32s10.7666-32,24-32,24,14.355,24,32Zm-12.317-4H232.32c.76233-4.59943,2.69506-7.37958,3.68-7.94543C236.985,48.62042,238.91772,51.40057,239.68005,56Zm4.07532,42.8136c-.87085,5.19842-4.06628,9.1864-7.7583,9.1864-3.69421,0-6.89136-3.99255-7.75989-9.1955a25.87093,25.87093,0,0,0,15.51819.0091ZM347.99756,60c0-13.458-7.02783-24-16-24s-16,10.542-16,24,7.02783,24,16,24c3.03943,0,5.74267,2.7041,7.09131,6.55878A18.31419,18.31419,0,0,1,331.99756,92c-13.2334,0-24-14.355-24-32s10.7666-32,24-32,24,14.355,24,32Zm-12.31751-4H328.32c.76233-4.59943,2.69506-7.37958,3.68-7.94543C332.985,48.62042,334.91772,51.40057,335.68005,56Zm4.07581,42.8136C338.885,104.012,335.68958,108,331.99756,108c-3.69422,0-6.89136-3.99255-7.75989-9.1955a25.87093,25.87093,0,0,0,15.51819.0091ZM315.02441,479.19287a12.72935,12.72935,0,0,1-2.48193-10.80908l17.95-79.27832H375.5918a21.31736,21.31736,0,0,0-2.63965,4.45312L336.7373,476.33594a12.79186,12.79186,0,0,1-21.71289,2.85693Zm29.042.34961,36.21484-82.77734a12.63981,12.63981,0,0,1,11.57751-7.65967H392v-.0044a12.65239,12.65239,0,0,1,11.71875,7.66407L439.93359,479.542A20.75643,20.75643,0,0,0,442.60645,484H341.39368A20.748,20.748,0,0,0,344.06641,479.54248Z"/></g></svg>
